#!OML:ASF I:\Actors\actors\Patient Classification 2\Patient 1\Session 1\actor1.ASF
:FULLY-SPECIFIED
:DEGREES
570
root -0.749445 17.8769 7.04134 -8.29796 -0.340994 -6.3556
lowerback 9.08109 1.01935 0.729403
upperback -2.34265 1.47833 0.387133
thorax -7.56432 0.698515 -0.231246
lowerneck -35.3487 -3.94077 -1.46099
upperneck 10.0394 -4.80469 1.62418
head 8.63472 -2.09 0.0195991
rclavicle -4.34344e-014 -9.54166e-015
rhumerus -44.0536 -14.4991 -26.2452
rradius 135.61
rwrist 13.3426
rhand -55.9296 -57.3134
rfingers 7.12502
rthumb -28.2689 -85.2006
lclavicle -4.34344e-014 -9.54166e-015
lhumerus -27.9302 17.498 30.3464
lradius 127.777
lwrist -10.6729
lhand -38.3753 -72.657
lfingers 7.12502
lthumb -11.4012 -42.987
rfemur 34.2254 0.860798 21.0673
rtibia -22.7305
rfoot -2.14788 -19.5537
rtoes -5.01536
lfemur 36.7395 2.14552 -9.78623
ltibia -31.9125
lfoot 10.1609 11.5607
ltoes -18.8631
571
root -0.759211 17.8203 7.03544 -9.43449 -0.364596 -6.36201
lowerback 8.95263 1.03775 0.686399
upperback -2.10453 1.49203 0.359198
thorax -7.23613 0.70884 -0.233184
lowerneck -33.1111 -3.85956 -1.46814
upperneck 10.7479 -4.80082 1.77949
head 8.5933 -2.08551 0.0893323
rclavicle 1.53064e-014 6.36111e-015
rhumerus -38.4347 -15.6072 -24.519
rradius 132.157
rwrist 13.9578
rhand -56.1518 -56.9154
rfingers 7.12502
rthumb -28.4813 -84.7671
lclavicle 1.53064e-014 6.36111e-015
lhumerus -22.0563 18.2627 29.4927
lradius 123.496
lwrist -9.8915
lhand -38.357 -72.7221
lfingers 7.12502
lthumb -11.3836 -43.0511
rfemur 35.6646 0.983833 21.1351
rtibia -23.0009
rfoot -2.38128 -19.3947
rtoes -5.56146
lfemur 38.3424 1.88364 -9.76433
ltibia -32.6239
lfoot 10.3261 11.7099
ltoes -19.1974
572
root -0.76923 17.7399 7.03237 -10.5996 -0.345188 -6.36771
lowerback 9.31492 1.10951 0.866823
upperback -2.16969 1.60242 0.198723
thorax -7.50376 0.748668 -0.528989
lowerneck -31.1829 -3.95755 -1.72631
upperneck 12.1481 -5.00314 2.22457
head 8.83428 -2.1456 0.260615
rclavicle 2.10712e-014 7.95139e-016
rhumerus -32.2309 -17.2373 -22.9365
rradius 127.587
rwrist 13.9862
rhand -55.5941 -56.056
rfingers 7.12502
rthumb -27.9483 -83.9957
lclavicle 2.10712e-014 7.95139e-016
lhumerus -15.4466 18.9635 29.0462
lradius 118.624
lwrist -8.65576
lhand -38.0652 -72.4321
lfingers 7.12502
lthumb -11.1021 -42.7458
rfemur 37.2484 1.01262 21.2152
rtibia -23.4115
rfoot -2.89523 -19.2255
rtoes -6.26921
lfemur 40.1015 1.93242 -9.68983
ltibia -33.5724
lfoot 10.4461 11.9119
ltoes -20.5782
573
root -0.799036 17.6471 7.05236 -11.3803 0.325001 -6.55317
lowerback 8.76714 0.965913 0.54489
upperback -1.98558 1.37594 0.345515
thorax -7.0066 0.659221 -0.145798
lowerneck -30.1615 -4.05747 -2.18889
upperneck 13.6503 -5.12337 2.66703
head 9.2424 -2.16939 0.466773
rclavicle -1.96797e-014 -1.11319e-014
rhumerus -24.988 -19.7456 -22.2535
rradius 122.228
rwrist 13.8557
rhand -54.6981 -57.8362
rfingers 7.12502
rthumb -27.0914 -85.9124
lclavicle -1.96797e-014 -1.11319e-014
lhumerus -8.23893 20.4592 29.7112
lradius 113.178
lwrist -7.32748
lhand -38.1216 -71.8615
lfingers 7.12502
lthumb -11.1566 -42.1781
rfemur 38.6525 0.635288 21.6017
rtibia -23.9331
rfoot -3.8201 -19.2462
rtoes -7.62972
lfemur 41.4447 2.09374 -9.22783
ltibia -34.658
lfoot 10.4705 11.6792
ltoes -20.9843
574
root -0.813464 17.5543 7.07234 -11.7561 0.873915 -6.62278
lowerback 8.00289 0.643373 -0.0809676
upperback -2.34841 0.882224 0.462733
thorax -6.96694 0.447106 0.408013
lowerneck -27.7317 -3.68152 -1.76353
upperneck 14.6824 -4.88545 2.68336
head 9.21039 -2.05216 0.464673
rclavicle -9.14409e-015 -3.97569e-015
rhumerus -17.5282 -21.6737 -23.2479
rradius 116.436
rwrist 14.2902
rhand -54.3833 -58.1655
rfingers 7.12502
rthumb -26.7902 -86.2882
lclavicle -9.14409e-015 -3.97569e-015
lhumerus -1.70207 21.6488 30.4596
lradius 107.296
lwrist -6.27928
lhand -38.0248 -70.7317
lfingers 7.12502
lthumb -11.0632 -41.0433
rfemur 39.6246 -0.00698043 21.6356
rtibia -24.6086
rfoot -4.37668 -18.9637
rtoes -9.30494
lfemur 42.4112 2.49406 -8.95169
ltibia -35.7959
lfoot 10.247 11.5202
ltoes -16.1534
575
root -0.81516 17.4682 7.09354 -11.6285 1.25414 -6.53316
lowerback 6.59594 0.423273 -0.719821
upperback -2.67616 0.537951 0.626639
thorax -6.51068 0.30942 0.993669
lowerneck -25.7636 -3.4424 -1.66359
upperneck 15.6517 -4.62533 2.47188
head 9.21569 -1.96405 0.432362
rclavicle 1.19271e-014 -3.18055e-015
rhumerus -10.3184 -23.9616 -25.2711
rradius 110.905
rwrist 14.8182
rhand -54.4542 -57.7665
rfingers 7.12502
rthumb -26.858 -85.8788
lclavicle 1.19271e-014 -3.18055e-015
lhumerus 4.98453 23.1618 32.7679
lradius 101.525
lwrist -6.2993
lhand -37.2782 -68.8961
lfingers 7.12502
lthumb -10.343 -39.1705
rfemur 40.0503 -0.708509 21.3659
rtibia -25.3888
rfoot -4.77603 -18.5455
rtoes -10.416
lfemur 42.8753 2.94631 -8.97148
ltibia -36.9362
lfoot 9.92981 11.3877
ltoes -15.2769
576
root -0.802854 17.3882 7.11116 -11.1135 1.42024 -6.40533
lowerback 5.60008 0.358109 -0.431421
upperback -3.52202 0.465872 0.370104
thorax -6.82683 0.259083 0.575664
lowerneck -24.1215 -3.42852 -1.99733
upperneck 16.6073 -4.62777 2.79422
head 9.29234 -1.95833 0.611565
rclavicle 8.15017e-015 3.18055e-015
rhumerus -5.67786 -25.4942 -27.1588
rradius 106.745
rwrist 15.6389
rhand -53.9048 -58.2073
rfingers 7.12502
rthumb -26.3322 -86.3994
lclavicle 8.15017e-015 3.18055e-015
lhumerus 10.497 23.9384 35.8245
lradius 96.6069
lwrist -7.06146
lhand -36.7385 -67.478
lfingers 7.12502
lthumb -9.8224 -37.7271
rfemur 40.0705 -1.30715 20.9984
rtibia -26.3482
rfoot -5.11794 -18.1962
rtoes -10.6794
lfemur 42.9598 3.27387 -9.18472
ltibia -38.094
lfoot 9.63072 11.3055
ltoes -16.8567
577
root -0.810493 17.3026 7.14094 -10.5607 1.99577 -6.42838
lowerback 4.63966 0.0124668 -0.661875
upperback -4.27378 -0.00638262 0.441983
thorax -7.06467 0.0434597 0.834055
lowerneck -23.4711 -3.18874 -1.97271
upperneck 17.4423 -4.25813 2.39099
head 9.45343 -1.83282 0.52626
rclavicle 1.23246e-014 1.11319e-014
rhumerus -2.91517 -26.4083 -27.8255
rradius 104.797
rwrist 15.1606
rhand -54.1861 -56.7592
rfingers 7.12502
rthumb -26.6014 -84.9107
lclavicle 1.23246e-014 1.11319e-014
lhumerus 12.1033 24.318 36.9499
lradius 94.0071
lwrist -6.82959
lhand -36.9446 -66.8201
lfingers 7.12502
lthumb -10.0211 -37.0786
rfemur 40.2804 -1.84294 21.0448
rtibia -27.5161
rfoot -5.80289 -18.3304
rtoes -10.452
lfemur 42.998 3.19916 -9.13422
ltibia -39.3185
lfoot 9.54346 10.8838
ltoes -18.5799
578
root -0.814386 17.2234 7.16488 -10.0981 2.4286 -6.43042
lowerback 4.01517 -0.229044 -0.962986
upperback -4.59693 -0.33119 0.713124
thorax -7.03838 -0.0916936 1.31866
lowerneck -24.6539 -3.13053 -2.2874
upperneck 18.1101 -3.94198 1.89095
head 9.88267 -1.75292 0.4324
rclavicle 3.97569e-016 -3.97569e-015
rhumerus -1.70033 -27.7166 -26.7057
rradius 104.447
rwrist 14.5651
rhand -54.131 -55.8811
rfingers 7.12502
rthumb -26.5487 -84.0405
lclavicle 3.97569e-016 -3.97569e-015
lhumerus 13.1008 25.1278 38.0968
lradius 92.7707
lwrist -6.90227
lhand -36.9169 -67.0859
lfingers 7.12502
lthumb -9.99447 -37.3432
rfemur 40.6747 -2.09787 21.1207
rtibia -28.9175
rfoot -5.97662 -18.6146
rtoes -10.8575
lfemur 43.1855 3.10545 -9.10779
ltibia -40.6366
lfoot 9.91553 10.5009
ltoes -19.5931
579
root -0.81531 17.1531 7.17606 -9.81263 2.75642 -6.38736
lowerback 4.19735 -0.472758 -1.06816
upperback -5.1764 -0.660272 0.813252
thorax -7.75402 -0.235008 1.52417
lowerneck -25.7661 -3.00396 -2.45081
upperneck 18.625 -3.62294 1.61933
head 10.2519 -1.64018 0.397555
rclavicle 3.77691e-015 7.95139e-015
rhumerus -0.932744 -28.1219 -25.8567
rradius 104.291
rwrist 15.1052
rhand -54.2168 -55.5868
rfingers 7.12502
rthumb -26.6309 -83.7338
lclavicle 3.77691e-015 7.95139e-015
lhumerus 12.6972 25.2414 38.1292
lradius 92.5501
lwrist -7.49236
lhand -36.9744 -68.0879
lfingers 7.12502
lthumb -10.0499 -38.3479
rfemur 41.2927 -2.15453 21.1551
rtibia -30.456
rfoot -5.54858 -19.06
rtoes -11.6497
lfemur 43.5295 3.10257 -9.12457
ltibia -41.9697
lfoot 10.7266 10.264
ltoes -19.4806
580
root -0.814298 17.0912 7.17843 -9.80661 2.92144 -6.34919
lowerback 4.27901 -0.646363 -0.984746
upperback -5.4434 -0.891029 0.756087
thorax -8.08404 -0.350264 1.44701
lowerneck -26.8215 -2.90313 -2.57174
upperneck 18.7406 -3.44867 1.77906
head 10.4794 -1.53948 0.491708
rclavicle -1.78906e-015 6.36111e-015
rhumerus -0.519596 -28.5127 -25.0446
rradius 104.058
rwrist 15.4777
rhand -54.2018 -55.9277
rfingers 7.12502
rthumb -26.6165 -84.0769
lclavicle -1.78906e-015 6.36111e-015
lhumerus 12.1644 25.1699 37.693
lradius 92.5394
lwrist -8.32997
lhand -37.2638 -68.8776
lfingers 7.12502
lthumb -10.3292 -39.1512
rfemur 42.1753 -2.23421 21.1316
rtibia -32.0471
rfoot -4.54187 -19.5366
rtoes -12.8146
lfemur 44.1149 3.25741 -9.08658
ltibia -43.1598
lfoot 11.57 10.1435
ltoes -18.92
581
root -0.81201 17.0418 7.18085 -10.1394 2.84436 -6.32251
lowerback 4.36378 -0.699076 -0.840496
upperback -5.4438 -0.958106 0.651202
thorax -8.13573 -0.394957 1.26466
lowerneck -27.8804 -2.85935 -2.4501
upperneck 18.8273 -3.39925 1.74906
head 10.6902 -1.50242 0.459294
rclavicle -2.38542e-015 1.27222e-014
rhumerus -0.12611 -28.949 -24.3035
rradius 103.428
rwrist 15.0138
rhand -54.1278 -56.0922
rfingers 7.12502
rthumb -26.5457 -84.2522
lclavicle -2.38542e-015 1.27222e-014
lhumerus 11.9933 24.9113 36.8584
lradius 92.0589
lwrist -8.61026
lhand -37.4991 -68.7335
lfingers 7.12502
lthumb -10.5561 -39.0186
rfemur 43.3151 -2.412 21.0212
rtibia -33.5398
rfoot -3.22586 -19.873
rtoes -14.2214
lfemur 44.9898 3.47351 -9.00455
ltibia -44.0548
lfoot 12.1018 10.0555
ltoes -18.8869
582
root -0.807814 17.0057 7.18467 -10.6202 2.57241 -6.16627
lowerback 4.49754 -0.661776 -0.877919
upperback -5.37723 -0.918431 0.565927
thorax -8.14405 -0.376493 1.19283
lowerneck -28.5974 -2.8146 -2.31426
upperneck 18.6852 -3.36083 1.71794
head 10.7565 -1.47325 0.426802
rclavicle -1.15295e-014 -1.74931e-014
rhumerus 0.549083 -29.3856 -23.8352
rradius 102.409
rwrist 14.2868
rhand -54.0652 -56.1142
rfingers 7.12502
rthumb -26.4857 -84.2831
lclavicle -1.15295e-014 -1.74931e-014
lhumerus 12.1205 24.4624 35.6718
lradius 91.0968
lwrist -8.05276
lhand -37.6631 -67.9733
lfingers 7.12502
lthumb -10.7143 -38.2665
rfemur 44.461 -2.50989 20.7281
rtibia -34.7375
rfoot -2.13385 -20.0537
rtoes -14.9171
lfemur 45.9088 3.68281 -9.09134
ltibia -44.5936
lfoot 12.2872 10.0495
ltoes -19.1311
583
root -0.804284 16.9791 7.18826 -11.0627 2.17985 -5.89436
lowerback 4.55535 -0.555643 -1.1128
upperback -5.32259 -0.800684 0.507447
thorax -8.1201 -0.307348 1.24987
lowerneck -29.1355 -2.81637 -2.27344
upperneck 18.5792 -3.35974 1.70734
head 10.8078 -1.46696 0.412259
rclavicle 1.31198e-014 1.11319e-014
rhumerus 1.35759 -29.9054 -23.7514
rradius 101.364
rwrist 13.967
rhand -54.035 -56.3654
rfingers 7.12502
rthumb -26.4568 -84.5387
lclavicle 1.31198e-014 1.11319e-014
lhumerus 12.4594 24.0594 34.7649
lradius 90.156
lwrist -7.37415
lhand -37.7006 -67.5088
lfingers 7.12502
lthumb -10.7505 -37.8039
rfemur 45.3889 -2.42028 20.3596
rtibia -35.5983
rfoot -1.41399 -20.1363
rtoes -15.0632
lfemur 46.6767 3.93029 -9.31414
ltibia -44.856
lfoot 12.2631 10.1378
ltoes -19.0433
584
root -0.823892 16.9534 7.20023 -11.5348 2.27023 -5.78548
lowerback 4.44754 -0.594892 -1.68255
upperback -5.22851 -0.895925 0.547012
thorax -7.94506 -0.321479 1.61917
lowerneck -29.6796 -2.86437 -2.25765
upperneck 18.6314 -3.41594 1.6976
head 10.9202 -1.48773 0.391314
rclavicle -5.76476e-015 4.77083e-015
rhumerus 2.00668 -30.4909 -23.8992
rradius 100.602
rwrist 13.7802
rhand -54.1219 -56.3192
rfingers 7.12502
rthumb -26.54 -84.48
lclavicle -5.76476e-015 4.77083e-015
lhumerus 12.919 23.8952 34.5275
lradius 89.5118
lwrist -7.15427
lhand -37.6074 -67.5507
lfingers 7.12502
lthumb -10.6606 -37.8411
rfemur 46.3043 -2.45839 20.3564
rtibia -36.149
rfoot -1.28548 -20.3436
rtoes -15.1712
lfemur 47.3102 3.86228 -9.26452
ltibia -44.9687
lfoot 12.2218 9.99614
ltoes -19.0838
